<?xml version="1.0" encoding="UTF-8" standalone="no"?>
<!DOCTYPE svg PUBLIC "-//W3C//DTD SVG 1.1//EN" "http://www.w3.org/Graphics/SVG/1.1/DTD/svg11.dtd">
<svg width="100%" height="100%" viewBox="0 0 50 50" version="1.1" xmlns="http://www.w3.org/2000/svg" xmlns:xlink="http://www.w3.org/1999/xlink" xml:space="preserve" xmlns:serif="http://www.serif.com/" style="fill-rule:evenodd;clip-rule:evenodd;stroke-linejoin:round;stroke-miterlimit:2;">
    <g>
        <path d="M27.5,2.674C21.319,2.674 15.556,5.451 11.667,10.382C8.958,13.854 7.5,18.16 7.5,22.535L7.5,26.215C7.5,27.812 6.875,29.34 5.833,30.451C5,31.285 3.958,31.91 2.847,32.188C3.264,33.229 4.236,34.826 5.972,36.563C7.431,38.09 9.167,39.34 11.042,40.243L11.042,40.174C12.222,38.368 14.167,37.326 16.319,37.326C16.736,37.326 17.083,37.396 17.5,37.465C20,37.951 21.944,39.896 22.431,42.326L27.569,42.326C32.917,42.326 37.986,40.104 41.667,36.493C47.361,30.799 49.097,22.257 45.972,14.896C42.847,7.465 35.625,2.674 27.5,2.674Z" style="fill:white;"/>
        <path d="M27.5,0.174C20.625,0.174 14.167,3.229 9.792,8.715C6.667,12.674 5,17.535 5,22.604L5,26.215C5,28.09 3.681,29.826 1.111,29.965C0.486,29.965 0,30.451 -0.069,31.076C-0.139,32.743 1.667,35.868 4.167,38.368C5.903,40.104 7.917,41.493 10.069,42.604C9.375,46.424 12.361,49.896 16.25,49.896L16.319,49.896C19.306,49.896 21.806,47.813 22.431,44.965L27.639,44.965C28.194,47.813 30.694,49.896 33.75,49.896C34.444,49.896 35.208,49.757 35.903,49.549C37.639,48.993 38.958,47.674 39.583,45.937C40.139,44.34 40.069,42.743 39.583,41.424C40.972,40.521 42.222,39.549 43.403,38.368C47.639,34.201 50,28.507 50,22.604C50,16.632 47.639,11.076 43.403,6.84C39.167,2.465 33.472,0.174 27.5,0.174ZM27.5,2.674C35.556,2.674 42.847,7.535 45.972,14.965C49.097,22.396 47.361,30.937 41.667,36.563C37.986,40.243 32.917,42.396 27.569,42.396L22.431,42.396C21.944,39.896 20,38.021 17.5,37.535C17.083,37.465 16.736,37.396 16.319,37.396C14.236,37.396 12.222,38.438 11.042,40.243L11.042,40.313C9.167,39.34 7.5,38.09 5.972,36.632C4.236,34.896 3.264,33.229 2.847,32.257C4.028,31.979 5,31.354 5.833,30.521C6.875,29.34 7.5,27.882 7.5,26.285L7.5,22.604C7.5,18.229 8.958,13.924 11.667,10.451C15.556,5.382 21.319,2.674 27.5,2.674Z"/>
        <path d="M37.5,15.035C36.111,15.035 35,16.146 35,17.535C35,18.924 36.111,20.035 37.5,20.035C38.889,20.035 40,18.924 40,17.535C40,16.146 38.889,15.035 37.5,15.035Z"/>
        <path d="M22.5,15.035C21.111,15.035 20,16.146 20,17.535C20,18.924 21.111,20.035 22.5,20.035C23.889,20.035 25,18.924 25,17.535C25,16.146 23.889,15.035 22.5,15.035Z"/>
        <path d="M22.083,24.965C21.181,24.965 20.556,25.868 20.972,26.701C22.639,30.174 26.111,32.396 30,32.396C33.889,32.396 37.361,30.174 39.028,26.701C39.375,25.868 38.819,24.965 37.917,24.965C37.431,24.965 37.014,25.243 36.806,25.66C35.556,28.229 32.917,29.896 30.069,29.896C27.153,29.896 24.514,28.229 23.333,25.66C23.056,25.243 22.639,24.965 22.083,24.965Z"/>
    </g>
</svg>
